<svg width="384" height="512" viewBox="0 0 384 512" fill="none" xmlns="http://www.w3.org/2000/svg">
<g clip-path="url(#clip0_1_2)">
<path d="M192 256C217.316 256 242.063 248.493 263.113 234.428C284.162 220.363 300.569 200.372 310.257 176.983C319.945 153.595 322.479 127.858 317.54 103.028C312.602 78.1989 300.411 55.3915 282.51 37.4904C264.609 19.5893 241.801 7.39845 216.972 2.45954C192.142 -2.47937 166.405 0.0554606 143.017 9.74348C119.628 19.4315 99.6367 35.8376 85.5719 56.8871C71.5071 77.9365 64 102.684 64 128C64.0339 161.937 77.5304 194.475 101.528 218.472C125.525 242.47 158.063 255.966 192 256ZM192 42.6667C208.877 42.6667 225.376 47.6714 239.409 57.048C253.442 66.4245 264.379 79.7518 270.838 95.3444C277.296 110.937 278.986 128.095 275.694 144.648C272.401 161.201 264.274 176.406 252.34 188.34C240.406 200.274 225.201 208.401 208.648 211.694C192.095 214.986 174.937 213.296 159.344 206.838C143.752 200.379 130.424 189.442 121.048 175.409C111.671 161.376 106.667 144.877 106.667 128C106.667 105.368 115.657 83.6634 131.66 67.6603C147.663 51.6572 169.368 42.6667 192 42.6667Z" fill="black"/>
<path d="M192 298C141.096 298.057 92.2926 318.367 56.2979 354.474C20.3031 390.581 0.0564662 439.537 0 490.6C0 496.276 2.24761 501.719 6.24839 505.732C10.2492 509.745 15.6754 512 21.3333 512C26.9913 512 32.4175 509.745 36.4183 505.732C40.4191 501.719 42.6667 496.276 42.6667 490.6C42.6667 450.871 58.4 412.768 86.4054 384.675C114.411 356.582 152.394 340.8 192 340.8C231.606 340.8 269.589 356.582 297.595 384.675C325.6 412.768 341.333 450.871 341.333 490.6C341.333 496.276 343.581 501.719 347.582 505.732C351.582 509.745 357.009 512 362.667 512C368.325 512 373.751 509.745 377.752 505.732C381.752 501.719 384 496.276 384 490.6C383.944 439.537 363.697 390.581 327.702 354.474C291.707 318.367 242.904 298.057 192 298Z" fill="black"/>
</g>
<defs>
<clipPath id="clip0_1_2">
<rect width="384" height="512" fill="white"/>
</clipPath>
</defs>
</svg>
