<svg width="224" height="57" viewBox="0 0 224 57" fill="none" xmlns="http://www.w3.org/2000/svg">
<g clip-path="url(#clip0_3_7)">
<circle cx="27.5" cy="27.5" r="27.5" fill="#CAF0F8"/>
<path d="M9.472 43.496C8.14933 43.496 6.89067 43.112 5.696 42.344C4.50133 41.6187 3.60533 40.488 3.008 38.952C2.79467 38.3973 2.64533 37.8 2.56 37.16C2.47467 36.52 2.432 35.9227 2.432 35.368V34.792C2.432 34.4507 2.45333 34.1093 2.496 33.768C2.58133 33.4267 2.77333 33.256 3.072 33.256C3.15733 33.256 3.2 33.2987 3.2 33.384C3.2 33.64 3.17867 33.9173 3.136 34.216C3.136 34.472 3.136 34.728 3.136 34.984C3.136 36.9893 3.62667 38.504 4.608 39.528C5.632 40.552 6.89067 41.064 8.384 41.064C9.87733 41.064 11.328 40.6373 12.736 39.784C14.144 38.9307 15.4453 37.8427 16.64 36.52C17.8347 35.1973 18.9653 33.5547 20.032 31.592C21.0987 29.6293 22.1013 27.56 23.04 25.384C23.9787 23.1653 24.8533 20.9893 25.664 18.856C26.5173 16.7227 27.3067 14.824 28.032 13.16C28.4587 12.1787 29.248 11.3467 30.4 10.664C31.5947 9.98133 32.7253 9.49067 33.792 9.192C33.4933 9.14933 33.1947 9.128 32.896 9.128C32.64 9.08533 32.384 9.04267 32.128 9L23.104 8.104C22.4213 8.01867 21.5253 7.95466 20.416 7.912C19.3067 7.86933 18.1333 7.848 16.896 7.848C15.232 7.848 13.5253 7.95467 11.776 8.168C10.0267 8.33867 8.448 8.65867 7.04 9.128C5.632 9.59733 4.608 10.3013 3.968 11.24C3.62667 11.752 3.456 12.3493 3.456 13.032C3.456 13.7147 3.648 14.3547 4.032 14.952C4.416 15.5493 4.90667 16.0187 5.504 16.36C5.58933 16.4453 5.632 16.5093 5.632 16.552C5.632 16.68 5.52533 16.7867 5.312 16.872C5.14133 16.9573 4.94933 16.9573 4.736 16.872C4.352 16.6587 3.904 16.296 3.392 15.784C2.88 15.272 2.41067 14.7387 1.984 14.184C1.6 13.5867 1.32267 13.096 1.152 12.712C0.896 11.9867 0.768 11.3467 0.768 10.792C0.768 9.768 1.10933 8.936 1.792 8.296C2.51733 7.61333 3.43467 7.10133 4.544 6.76C5.696 6.376 6.912 6.12 8.192 5.992C9.51467 5.82133 10.7733 5.736 11.968 5.736C12.4373 5.736 12.8853 5.736 13.312 5.736C13.7387 5.736 14.144 5.75733 14.528 5.8C15.8933 5.88533 17.3227 5.97066 18.816 6.056C20.3093 6.14133 21.824 6.248 23.36 6.376L33.536 7.208C34.2187 7.25067 35.2427 7.336 36.608 7.464C38.016 7.54933 39.4453 7.592 40.896 7.592C42.4747 7.592 43.9253 7.50667 45.248 7.336C46.5707 7.12267 47.4453 6.76 47.872 6.248C47.9573 6.07733 48.0853 6.03466 48.256 6.12C48.4267 6.20533 48.4693 6.312 48.384 6.44C48.256 6.952 48.0853 7.336 47.872 7.592C47.6587 8.01867 47.36 8.488 46.976 9C46.6347 9.512 46.1013 9.85333 45.376 10.024C45.2053 10.0667 44.9707 10.1093 44.672 10.152C44.3733 10.152 44.0533 10.152 43.712 10.152C42.7307 10.152 41.536 10.088 40.128 9.96C38.7627 9.78933 37.4187 9.61867 36.096 9.448C34.816 9.66133 33.7067 10.2587 32.768 11.24C31.8293 12.2213 31.0187 13.352 30.336 14.632C29.6533 15.8693 29.056 17.0427 28.544 18.152C27.6053 20.072 26.816 21.8427 26.176 23.464C25.5787 25.0427 24.832 26.792 23.936 28.712C23.04 30.6747 22.1013 32.616 21.12 34.536C20.1387 36.4133 18.944 38.12 17.536 39.656C16.4693 40.808 15.232 41.7253 13.824 42.408C12.416 43.1333 10.9653 43.496 9.472 43.496Z" fill="#000"/>
<path d="M16.512 52.448C16.4693 52.4907 16.4267 52.512 16.384 52.512C16.256 52.512 16.192 52.32 16.192 51.936C16.192 51.68 16.256 51.424 16.384 51.168C16.5547 50.8693 16.8533 50.6987 17.28 50.656C18.4747 50.5707 19.6053 50.1653 20.672 49.44C21.7387 48.7147 22.6773 47.8613 23.488 46.88C24.2987 45.856 24.8747 44.896 25.216 44L31.104 29.28C31.9147 27.2747 32.832 25.3333 33.856 23.456C34.9227 21.5787 36.2667 20.0427 37.888 18.848C39.552 17.6533 41.6427 17.056 44.16 17.056C45.1413 17.056 46.1227 17.184 47.104 17.44C48.128 17.6533 48.9813 18.016 49.664 18.528C50.3467 19.04 50.688 19.7653 50.688 20.704C50.688 20.832 50.688 20.96 50.688 21.088C50.688 21.216 50.6667 21.344 50.624 21.472C50.496 22.1547 50.112 22.8373 49.472 23.52C48.8747 24.2027 48.4053 25.056 48.064 26.08C48.0213 26.3787 47.8293 26.528 47.488 26.528C47.1893 26.528 47.1253 26.336 47.296 25.952C47.6373 25.44 47.8933 24.8427 48.064 24.16C48.2773 23.4347 48.384 22.7093 48.384 21.984C48.384 20.8747 48.128 19.8933 47.616 19.04C47.104 18.1867 46.2293 17.76 44.992 17.76C43.8827 17.76 42.752 18.08 41.6 18.72C40.448 19.36 39.4453 20.4693 38.592 22.048L26.752 43.872C25.6427 45.92 24.6187 47.392 23.68 48.288C22.784 49.1413 22.0373 49.6747 21.44 49.888H36.864C38.912 49.888 40.8107 49.824 42.56 49.696C44.3093 49.568 45.376 49.248 45.76 48.736C46.1867 48.1387 46.4 47.4987 46.4 46.816C46.4 45.7493 45.824 44.96 44.672 44.448C44.544 44.3627 44.48 44.2773 44.48 44.192C44.48 44.1067 44.5227 44.0213 44.608 43.936C44.736 43.8507 44.8853 43.8507 45.056 43.936C45.44 44.1067 45.888 44.4907 46.4 45.088C46.9547 45.6427 47.4667 46.2613 47.936 46.944C48.4053 47.584 48.704 48.096 48.832 48.48C48.96 48.864 49.024 49.248 49.024 49.632C49.024 51.3813 47.5093 52.256 44.48 52.256C42.0907 52.256 39.5307 52.1707 36.8 52C34.0693 51.8293 31.36 51.6373 28.672 51.424C26.0267 51.2107 23.5307 51.0613 21.184 50.976C20.288 50.8907 19.392 51.0187 18.496 51.36C17.6427 51.6587 16.9813 52.0213 16.512 52.448Z" fill="#000"/>
<path d="M67.104 41.872C66.112 41.872 65.168 41.584 64.272 41.008C63.376 40.464 62.704 39.616 62.256 38.464C62.096 38.048 61.984 37.6 61.92 37.12C61.856 36.64 61.824 36.192 61.824 35.776V35.344C61.824 35.088 61.84 34.832 61.872 34.576C61.936 34.32 62.08 34.192 62.304 34.192C62.368 34.192 62.4 34.224 62.4 34.288C62.4 34.48 62.384 34.688 62.352 34.912C62.352 35.104 62.352 35.296 62.352 35.488C62.352 36.992 62.72 38.128 63.456 38.896C64.224 39.664 65.168 40.048 66.288 40.048C67.408 40.048 68.496 39.728 69.552 39.088C70.608 38.448 71.584 37.632 72.48 36.64C73.376 35.648 74.224 34.416 75.024 32.944C75.824 31.472 76.576 29.92 77.28 28.288C77.984 26.624 78.64 24.992 79.248 23.392C79.888 21.792 80.48 20.368 81.024 19.12C81.344 18.384 81.936 17.76 82.8 17.248C83.696 16.736 84.544 16.368 85.344 16.144C85.12 16.112 84.896 16.096 84.672 16.096C84.48 16.064 84.288 16.032 84.096 16L77.328 15.328C76.816 15.264 76.144 15.216 75.312 15.184C74.48 15.152 73.6 15.136 72.672 15.136C71.424 15.136 70.144 15.216 68.832 15.376C67.52 15.504 66.336 15.744 65.28 16.096C64.224 16.448 63.456 16.976 62.976 17.68C62.72 18.064 62.592 18.512 62.592 19.024C62.592 19.536 62.736 20.016 63.024 20.464C63.312 20.912 63.68 21.264 64.128 21.52C64.192 21.584 64.224 21.632 64.224 21.664C64.224 21.76 64.144 21.84 63.984 21.904C63.856 21.968 63.712 21.968 63.552 21.904C63.264 21.744 62.928 21.472 62.544 21.088C62.16 20.704 61.808 20.304 61.488 19.888C61.2 19.44 60.992 19.072 60.864 18.784C60.672 18.24 60.576 17.76 60.576 17.344C60.576 16.576 60.832 15.952 61.344 15.472C61.888 14.96 62.576 14.576 63.408 14.32C64.272 14.032 65.184 13.84 66.144 13.744C67.136 13.616 68.08 13.552 68.976 13.552C69.328 13.552 69.664 13.552 69.984 13.552C70.304 13.552 70.608 13.568 70.896 13.6C71.92 13.664 72.992 13.728 74.112 13.792C75.232 13.856 76.368 13.936 77.52 14.032L85.152 14.656C85.664 14.688 86.432 14.752 87.456 14.848C88.512 14.912 89.584 14.944 90.672 14.944C91.856 14.944 92.944 14.88 93.936 14.752C94.928 14.592 95.584 14.32 95.904 13.936C95.968 13.808 96.064 13.776 96.192 13.84C96.32 13.904 96.352 13.984 96.288 14.08C96.192 14.464 96.064 14.752 95.904 14.944C95.744 15.264 95.52 15.616 95.232 16C94.976 16.384 94.576 16.64 94.032 16.768C93.904 16.8 93.728 16.832 93.504 16.864C93.28 16.864 93.04 16.864 92.784 16.864C92.048 16.864 91.152 16.816 90.096 16.72C89.072 16.592 88.064 16.464 87.072 16.336C86.112 16.496 85.28 16.944 84.576 17.68C83.872 18.416 83.264 19.264 82.752 20.224C82.24 21.152 81.792 22.032 81.408 22.864C80.704 24.304 80.112 25.632 79.632 26.848C79.184 28.032 78.624 29.344 77.952 30.784C77.28 32.256 76.576 33.712 75.84 35.152C75.104 36.56 74.208 37.84 73.152 38.992C72.352 39.856 71.424 40.544 70.368 41.056C69.312 41.6 68.224 41.872 67.104 41.872ZM89.4548 40.288C88.9748 40.288 88.5428 40.192 88.1588 40C87.8068 39.808 87.6308 39.456 87.6308 38.944C87.6308 38.656 87.6948 38.336 87.8228 37.984C88.1108 37.248 88.4948 36.352 88.9748 35.296C89.4868 34.24 89.9988 33.216 90.5108 32.224C91.0228 31.2 91.4228 30.368 91.7108 29.728C91.9028 29.344 91.9988 29.072 91.9988 28.912C91.9988 28.624 91.8388 28.56 91.5188 28.72C91.1988 28.88 90.8468 29.104 90.4628 29.392C90.0788 29.68 89.7908 29.904 89.5988 30.064C88.7668 30.832 87.8868 31.744 86.9588 32.8C86.0628 33.824 85.2308 34.912 84.4628 36.064C83.7268 37.184 83.1508 38.304 82.7348 39.424C82.7028 39.616 82.4948 39.776 82.1108 39.904C81.7268 40.032 81.3748 40.096 81.0548 40.096C80.5427 40.096 80.3507 39.936 80.4787 39.616C81.2148 37.952 81.9668 36.112 82.7348 34.096C83.5348 32.08 84.4308 30.016 85.4228 27.904C86.1588 26.304 86.9748 24.656 87.8708 22.96C88.7988 21.264 89.8228 19.648 90.9428 18.112C92.0628 16.544 93.2948 15.168 94.6388 13.984C95.8228 12.96 97.1188 12.128 98.5268 11.488C99.9668 10.816 101.519 10.48 103.183 10.48C103.919 10.48 104.559 10.64 105.103 10.96C105.647 11.248 105.951 11.776 106.015 12.544V12.976C106.015 13.424 105.967 13.872 105.871 14.32C105.839 14.448 105.711 14.512 105.487 14.512C105.391 14.512 105.359 14.496 105.391 14.464C105.519 13.632 105.295 13.04 104.719 12.688C104.175 12.336 103.471 12.16 102.607 12.16C101.039 12.16 99.5988 12.448 98.2868 13.024C96.9748 13.6 95.7588 14.368 94.6388 15.328C92.9108 16.832 91.4068 18.752 90.1268 21.088C88.8468 23.424 87.7428 25.808 86.8148 28.24C86.3668 29.424 85.9188 30.608 85.4708 31.792C85.0548 32.976 84.6548 34.08 84.2708 35.104C85.7108 33.184 87.0868 31.536 88.3988 30.16C89.7428 28.784 90.9108 27.808 91.9028 27.232C92.7028 26.784 93.4228 26.56 94.0628 26.56C94.6708 26.56 94.9748 26.816 94.9748 27.328C94.9748 27.776 94.7508 28.352 94.3028 29.056C94.0788 29.408 93.7268 30 93.2468 30.832C92.7988 31.664 92.3188 32.576 91.8068 33.568C91.3268 34.528 90.9108 35.424 90.5588 36.256C90.2068 37.088 90.0308 37.696 90.0308 38.08C90.0308 38.592 90.2548 38.848 90.7028 38.848C90.9588 38.848 91.2468 38.768 91.5668 38.608C91.9188 38.448 92.1748 38.304 92.3348 38.176C93.1988 37.536 94.0468 36.752 94.8788 35.824C95.7108 34.896 96.4148 34.08 96.9908 33.376C97.0228 33.344 97.0388 33.392 97.0388 33.52C97.0388 33.648 97.0068 33.84 96.9428 34.096C96.9108 34.32 96.8148 34.512 96.6548 34.672C96.3028 35.152 95.9348 35.616 95.5508 36.064C95.1988 36.48 94.8468 36.896 94.4948 37.312C93.8868 38.016 93.1508 38.688 92.2868 39.328C91.4548 39.968 90.5108 40.288 89.4548 40.288ZM99.1961 40.384C97.8841 40.384 96.9721 40.128 96.4601 39.616C95.9481 39.104 95.6921 38.48 95.6921 37.744C95.6921 36.816 95.9321 35.824 96.4121 34.768C96.9241 33.712 97.4041 32.816 97.8521 32.08C98.3641 31.312 99.0521 30.512 99.9161 29.68C100.78 28.848 101.724 28.144 102.748 27.568C103.772 26.992 104.764 26.704 105.724 26.704C106.556 26.704 107.132 26.912 107.452 27.328C107.772 27.712 107.932 28.176 107.932 28.72C107.932 29.712 107.628 30.528 107.02 31.168C106.444 31.808 105.724 32.336 104.86 32.752C103.996 33.136 103.164 33.456 102.364 33.712C101.884 33.84 101.324 33.968 100.684 34.096C100.044 34.224 99.4361 34.288 98.8601 34.288C98.6361 34.864 98.4601 35.424 98.3321 35.968C98.2041 36.512 98.1401 37.008 98.1401 37.456C98.1401 38 98.2681 38.448 98.5241 38.8C98.8121 39.152 99.2761 39.328 99.9161 39.328C100.172 39.328 100.476 39.296 100.828 39.232C101.18 39.168 101.564 39.072 101.98 38.944C102.94 38.624 103.884 38.112 104.812 37.408C105.74 36.704 106.588 35.952 107.356 35.152C108.156 34.32 108.764 33.632 109.18 33.088C109.276 33.184 109.324 33.296 109.324 33.424C109.324 33.584 109.212 33.84 108.988 34.192C108.348 35.088 107.516 36.016 106.492 36.976C105.468 37.936 104.332 38.752 103.084 39.424C101.836 40.064 100.54 40.384 99.1961 40.384ZM99.2441 33.328C99.6601 33.36 100.124 33.36 100.636 33.328C101.18 33.264 101.708 33.152 102.22 32.992C103.532 32.608 104.476 32 105.052 31.168C105.66 30.304 105.964 29.536 105.964 28.864C105.964 28.48 105.884 28.16 105.724 27.904C105.564 27.648 105.308 27.52 104.956 27.52C104.028 27.52 103.196 27.872 102.46 28.576C101.724 29.248 101.084 30.032 100.54 30.928C99.9961 31.824 99.5641 32.624 99.2441 33.328ZM115.275 40.336C115.243 40.368 115.211 40.384 115.179 40.384C115.083 40.384 115.035 40.24 115.035 39.952C115.035 39.76 115.083 39.568 115.179 39.376C115.307 39.152 115.531 39.024 115.851 38.992C116.747 38.928 117.595 38.624 118.395 38.08C119.195 37.536 119.899 36.896 120.507 36.16C121.115 35.392 121.547 34.672 121.803 34L126.219 22.96C126.827 21.456 127.515 20 128.283 18.592C129.083 17.184 130.091 16.032 131.307 15.136C132.555 14.24 134.123 13.792 136.011 13.792C136.747 13.792 137.483 13.888 138.219 14.08C138.987 14.24 139.627 14.512 140.139 14.896C140.651 15.28 140.907 15.824 140.907 16.528C140.907 16.624 140.907 16.72 140.907 16.816C140.907 16.912 140.891 17.008 140.859 17.104C140.763 17.616 140.475 18.128 139.995 18.64C139.547 19.152 139.195 19.792 138.939 20.56C138.907 20.784 138.763 20.896 138.507 20.896C138.283 20.896 138.235 20.752 138.363 20.464C138.619 20.08 138.811 19.632 138.939 19.12C139.099 18.576 139.179 18.032 139.179 17.488C139.179 16.656 138.987 15.92 138.603 15.28C138.219 14.64 137.563 14.32 136.635 14.32C135.803 14.32 134.955 14.56 134.091 15.04C133.227 15.52 132.475 16.352 131.835 17.536L122.955 33.904C122.123 35.44 121.355 36.544 120.651 37.216C119.979 37.856 119.419 38.256 118.971 38.416H130.539C132.075 38.416 133.499 38.368 134.811 38.272C136.123 38.176 136.923 37.936 137.211 37.552C137.531 37.104 137.691 36.624 137.691 36.112C137.691 35.312 137.259 34.72 136.395 34.336C136.299 34.272 136.251 34.208 136.251 34.144C136.251 34.08 136.283 34.016 136.347 33.952C136.443 33.888 136.555 33.888 136.683 33.952C136.971 34.08 137.307 34.368 137.691 34.816C138.107 35.232 138.491 35.696 138.843 36.208C139.195 36.688 139.419 37.072 139.515 37.36C139.611 37.648 139.659 37.936 139.659 38.224C139.659 39.536 138.523 40.192 136.251 40.192C134.459 40.192 132.539 40.128 130.491 40C128.443 39.872 126.411 39.728 124.395 39.568C122.411 39.408 120.539 39.296 118.779 39.232C118.107 39.168 117.435 39.264 116.763 39.52C116.123 39.744 115.627 40.016 115.275 40.336ZM152.757 21.664C152.309 21.664 151.989 21.52 151.797 21.232C151.669 21.072 151.605 20.864 151.605 20.608C151.605 20.096 151.845 19.68 152.325 19.36C152.677 19.168 152.997 19.072 153.285 19.072C153.765 19.072 154.101 19.216 154.293 19.504C154.421 19.664 154.485 19.872 154.485 20.128C154.485 20.64 154.229 21.056 153.717 21.376C153.429 21.568 153.109 21.664 152.757 21.664ZM144.405 40.144C144.085 40.144 143.813 40.08 143.589 39.952C143.397 39.824 143.301 39.584 143.301 39.232C143.301 38.784 143.413 38.256 143.637 37.648C143.893 37.04 144.165 36.432 144.453 35.824C144.773 35.216 145.013 34.72 145.173 34.336C145.397 33.888 145.669 33.312 145.989 32.608C146.341 31.872 146.661 31.184 146.949 30.544C147.269 29.872 147.493 29.408 147.621 29.152C147.173 29.632 146.629 30.24 145.989 30.976C145.381 31.68 144.805 32.368 144.261 33.04C143.717 33.712 143.301 34.24 143.013 34.624C142.917 34.752 142.837 34.816 142.773 34.816C142.709 34.816 142.677 34.736 142.677 34.576C142.677 34.32 142.757 34.08 142.917 33.856C143.525 33.088 144.197 32.224 144.933 31.264C145.701 30.304 146.389 29.424 146.997 28.624C147.605 27.792 147.989 27.248 148.149 26.992C148.501 26.928 149.013 26.832 149.685 26.704C150.389 26.576 150.869 26.4 151.125 26.176C151.221 26.08 151.317 26.032 151.413 26.032C151.477 26.032 151.509 26.096 151.509 26.224C151.541 26.32 151.509 26.432 151.413 26.56C151.221 26.784 150.885 27.328 150.405 28.192C149.925 29.056 149.413 30.016 148.869 31.072C148.357 32.096 147.877 33.024 147.429 33.856C146.981 34.72 146.597 35.552 146.277 36.352C145.957 37.152 145.797 37.728 145.797 38.08C145.797 38.528 146.021 38.752 146.469 38.752C146.885 38.752 147.413 38.496 148.053 37.984C148.725 37.472 149.397 36.864 150.069 36.16C150.741 35.424 151.333 34.752 151.845 34.144C152.005 33.952 152.197 33.728 152.421 33.472C152.677 33.184 152.837 33.008 152.901 32.944C152.965 33.008 152.997 33.12 152.997 33.28C152.965 33.504 152.885 33.728 152.757 33.952C152.629 34.144 152.501 34.32 152.373 34.48C151.701 35.312 150.965 36.176 150.165 37.072C149.365 37.936 148.485 38.672 147.525 39.28C146.565 39.856 145.525 40.144 144.405 40.144ZM154.023 40.432C153.607 40.432 153.111 40.352 152.535 40.192C151.959 40.064 151.671 39.712 151.671 39.136C151.671 38.912 151.719 38.656 151.815 38.368C151.911 38.08 152.007 37.824 152.103 37.6C152.423 36.768 152.759 35.92 153.111 35.056C153.463 34.192 153.831 33.312 154.215 32.416C153.799 32.896 153.399 33.344 153.015 33.76C152.663 34.144 152.407 34.432 152.247 34.624C152.151 34.752 152.071 34.816 152.007 34.816C151.943 34.816 151.911 34.736 151.911 34.576C151.911 34.32 151.991 34.08 152.151 33.856C152.599 33.28 153.111 32.672 153.687 32.032C154.263 31.392 154.823 30.72 155.367 30.016C156.711 27.2 158.215 24.48 159.879 21.856C161.543 19.2 163.415 16.848 165.495 14.8C166.135 14.192 166.855 13.568 167.655 12.928C168.455 12.288 169.303 11.744 170.199 11.296C171.127 10.848 172.039 10.624 172.935 10.624C173.415 10.624 173.847 10.752 174.231 11.008C174.647 11.264 174.871 11.664 174.903 12.208V13.6C174.903 13.728 174.807 13.792 174.615 13.792C174.519 13.792 174.471 13.76 174.471 13.696C174.471 13.184 174.247 12.848 173.799 12.688C173.351 12.496 172.903 12.4 172.455 12.4C170.695 12.4 169.111 12.864 167.703 13.792C166.295 14.688 165.047 15.872 163.959 17.344C162.871 18.784 161.895 20.384 161.031 22.144C160.167 23.872 159.383 25.584 158.679 27.28C158.007 28.944 157.367 30.432 156.759 31.744C156.759 31.744 156.759 31.776 156.759 31.84C156.759 31.904 156.775 31.936 156.807 31.936C156.839 31.936 157.095 31.696 157.575 31.216C158.087 30.704 158.711 30.112 159.447 29.44C160.215 28.768 161.015 28.192 161.847 27.712C162.679 27.2 163.447 26.944 164.151 26.944C164.503 26.944 164.727 27.072 164.823 27.328C164.919 27.552 164.967 27.808 164.967 28.096V28.528C164.807 29.712 164.391 30.992 163.719 32.368C163.079 33.744 162.247 35.056 161.223 36.304C160.231 37.52 159.111 38.512 157.863 39.28C156.647 40.048 155.367 40.432 154.023 40.432ZM154.791 39.616C155.303 39.616 155.847 39.424 156.423 39.04C157.031 38.624 157.495 38.256 157.815 37.936C158.199 37.584 158.663 37.04 159.207 36.304C159.751 35.536 160.279 34.704 160.791 33.808C161.303 32.912 161.735 32.048 162.087 31.216C162.439 30.384 162.615 29.712 162.615 29.2C162.615 29.04 162.583 28.896 162.519 28.768C162.455 28.64 162.343 28.576 162.183 28.576C161.895 28.576 161.511 28.752 161.031 29.104C160.583 29.456 160.087 29.888 159.543 30.4C159.031 30.88 158.551 31.36 158.103 31.84C157.687 32.288 157.383 32.624 157.191 32.848C156.839 33.232 156.391 33.792 155.847 34.528C155.303 35.264 154.807 36.016 154.359 36.784C153.943 37.52 153.735 38.144 153.735 38.656C153.735 39.296 154.087 39.616 154.791 39.616ZM165.186 40.672C165.058 40.672 165.058 40.544 165.186 40.288C165.346 40 165.49 39.68 165.618 39.328C165.778 38.976 165.938 38.592 166.098 38.176C166.418 37.408 166.77 36.544 167.154 35.584C167.538 34.624 167.906 33.696 168.258 32.8C168.61 31.872 168.914 31.088 169.17 30.448C169.458 29.776 169.65 29.344 169.746 29.152C169.298 29.632 168.754 30.24 168.114 30.976C167.506 31.68 166.93 32.368 166.386 33.04C165.842 33.712 165.426 34.24 165.138 34.624C165.042 34.752 164.962 34.816 164.898 34.816C164.834 34.816 164.802 34.736 164.802 34.576C164.802 34.32 164.882 34.08 165.042 33.856C165.65 33.088 166.322 32.224 167.058 31.264C167.826 30.304 168.514 29.424 169.122 28.624C169.73 27.792 170.114 27.248 170.274 26.992C170.626 26.928 171.138 26.832 171.81 26.704C172.514 26.576 172.994 26.4 173.25 26.176C173.346 26.08 173.442 26.032 173.538 26.032C173.602 26.032 173.634 26.096 173.634 26.224C173.666 26.32 173.634 26.432 173.538 26.56C173.346 26.752 173.058 27.168 172.674 27.808C172.322 28.448 171.922 29.184 171.474 30.016C171.026 30.848 170.594 31.648 170.178 32.416C170.498 31.936 170.914 31.376 171.426 30.736C171.97 30.064 172.562 29.424 173.202 28.816C173.842 28.176 174.482 27.648 175.122 27.232C175.794 26.816 176.418 26.608 176.994 26.608C177.41 26.608 177.762 26.704 178.05 26.896C178.338 27.056 178.562 27.36 178.722 27.808C178.818 28.032 178.866 28.288 178.866 28.576C178.866 29.12 178.722 29.648 178.434 30.16C178.178 30.64 177.986 31.008 177.858 31.264C177.826 31.36 177.714 31.456 177.522 31.552C177.33 31.616 177.25 31.584 177.282 31.456C177.314 31.296 177.33 31.136 177.33 30.976C177.362 30.816 177.378 30.64 177.378 30.448C177.378 29.904 177.266 29.408 177.042 28.96C176.85 28.512 176.482 28.288 175.938 28.288C175.426 28.288 174.802 28.608 174.066 29.248C173.33 29.888 172.594 30.624 171.858 31.456C170.93 32.544 170.194 33.584 169.65 34.576C169.106 35.536 168.658 36.48 168.306 37.408C168.114 37.92 167.922 38.432 167.73 38.944C167.538 39.424 167.394 39.808 167.298 40.096C166.882 40.128 166.466 40.224 166.05 40.384C165.634 40.576 165.346 40.672 165.186 40.672ZM184.504 40.144C184.184 40.144 183.912 40.08 183.688 39.952C183.464 39.824 183.352 39.584 183.352 39.232C183.352 38.784 183.464 38.272 183.688 37.696C183.912 37.12 184.168 36.56 184.456 36.016C184.744 35.44 185 34.976 185.224 34.624C184.104 35.808 182.936 36.928 181.72 37.984C181.112 38.496 180.44 38.976 179.704 39.424C178.968 39.872 178.184 40.096 177.352 40.096C177.032 40.096 176.808 40 176.68 39.808C176.552 39.584 176.488 39.328 176.488 39.04C176.488 38.88 176.504 38.768 176.536 38.704C176.696 37.456 177.096 36.16 177.736 34.816C178.376 33.472 179.16 32.208 180.088 31.024C181.016 29.84 181.96 28.88 182.92 28.144C184.008 27.312 185.208 26.896 186.52 26.896H192.04C192.2 26.896 192.28 26.96 192.28 27.088C192.28 27.344 192.136 27.472 191.848 27.472C191.528 27.472 191.208 27.68 190.888 28.096C190.568 28.48 190.328 28.8 190.168 29.056C189.944 29.408 189.592 30 189.112 30.832C188.632 31.664 188.136 32.576 187.624 33.568C187.144 34.528 186.728 35.424 186.376 36.256C186.024 37.088 185.848 37.696 185.848 38.08C185.848 38.528 186.072 38.752 186.52 38.752C187 38.752 187.544 38.528 188.152 38.08C188.76 37.632 189.368 37.088 189.976 36.448C190.616 35.776 191.192 35.12 191.704 34.48C192.248 33.808 192.68 33.28 193 32.896C193.192 33.088 193.176 33.36 192.952 33.712C192.76 34.032 192.584 34.288 192.424 34.48C191.784 35.312 191.048 36.176 190.216 37.072C189.384 37.936 188.472 38.672 187.48 39.28C186.52 39.856 185.528 40.144 184.504 40.144ZM179.32 38.464C179.704 38.464 180.232 38.192 180.904 37.648C181.608 37.072 182.36 36.368 183.16 35.536C183.96 34.672 184.712 33.776 185.416 32.848C186.12 31.888 186.696 31.024 187.144 30.256C187.624 29.456 187.864 28.848 187.864 28.432C187.864 28.08 187.752 27.84 187.528 27.712C187.336 27.584 187.08 27.52 186.76 27.52C186.248 27.52 185.688 27.712 185.08 28.096C184.504 28.448 184.04 28.8 183.688 29.152C183.304 29.504 182.84 30.064 182.296 30.832C181.784 31.568 181.272 32.384 180.76 33.28C180.248 34.176 179.816 35.04 179.464 35.872C179.112 36.704 178.936 37.376 178.936 37.888C178.936 38.272 179.064 38.464 179.32 38.464ZM192.373 40.672C192.245 40.672 192.245 40.544 192.373 40.288C192.533 40 192.677 39.68 192.805 39.328C192.965 38.976 193.125 38.592 193.285 38.176C193.605 37.408 193.957 36.544 194.341 35.584C194.725 34.624 195.093 33.696 195.445 32.8C195.797 31.872 196.101 31.088 196.357 30.448C196.645 29.776 196.837 29.344 196.933 29.152C196.485 29.632 195.941 30.24 195.301 30.976C194.693 31.68 194.117 32.368 193.573 33.04C193.029 33.712 192.613 34.24 192.325 34.624C192.229 34.752 192.149 34.816 192.085 34.816C192.021 34.816 191.989 34.736 191.989 34.576C191.989 34.32 192.069 34.08 192.229 33.856C192.837 33.088 193.509 32.224 194.245 31.264C195.013 30.304 195.701 29.424 196.309 28.624C196.917 27.792 197.301 27.248 197.461 26.992C197.813 26.928 198.325 26.832 198.997 26.704C199.701 26.576 200.181 26.4 200.437 26.176C200.533 26.08 200.629 26.032 200.725 26.032C200.789 26.032 200.821 26.096 200.821 26.224C200.853 26.32 200.821 26.432 200.725 26.56C200.533 26.752 200.245 27.168 199.861 27.808C199.509 28.448 199.109 29.184 198.661 30.016C198.213 30.848 197.781 31.648 197.365 32.416C197.685 31.936 198.101 31.376 198.613 30.736C199.157 30.064 199.749 29.424 200.389 28.816C201.029 28.176 201.669 27.648 202.309 27.232C202.981 26.816 203.605 26.608 204.181 26.608C204.597 26.608 204.949 26.704 205.237 26.896C205.525 27.056 205.749 27.36 205.909 27.808C206.005 28.032 206.053 28.288 206.053 28.576C206.053 29.12 205.909 29.648 205.621 30.16C205.365 30.64 205.173 31.008 205.045 31.264C205.013 31.36 204.901 31.456 204.709 31.552C204.517 31.616 204.437 31.584 204.469 31.456C204.501 31.296 204.517 31.136 204.517 30.976C204.549 30.816 204.565 30.64 204.565 30.448C204.565 29.904 204.453 29.408 204.229 28.96C204.037 28.512 203.669 28.288 203.125 28.288C202.613 28.288 201.989 28.608 201.253 29.248C200.517 29.888 199.781 30.624 199.045 31.456C198.117 32.544 197.381 33.584 196.837 34.576C196.293 35.536 195.845 36.48 195.493 37.408C195.301 37.92 195.109 38.432 194.917 38.944C194.725 39.424 194.581 39.808 194.485 40.096C194.069 40.128 193.653 40.224 193.237 40.384C192.821 40.576 192.533 40.672 192.373 40.672ZM200.219 56.8C199.003 56.8 197.835 56.512 196.715 55.936C195.563 55.392 194.715 54.544 194.171 53.392C193.979 52.976 193.851 52.528 193.787 52.048C193.723 51.6 193.691 51.152 193.691 50.704V50.176C193.691 49.92 193.723 49.68 193.787 49.456C193.851 49.264 194.011 49.168 194.267 49.168C194.331 49.168 194.363 49.2 194.363 49.264C194.363 49.456 194.347 49.648 194.315 49.84C194.283 50.032 194.267 50.24 194.267 50.464C194.267 51.936 194.747 53.056 195.707 53.824C196.635 54.592 197.803 54.976 199.211 54.976C199.787 54.976 200.379 54.912 200.987 54.784C201.595 54.656 202.171 54.48 202.715 54.256C204.731 53.392 206.475 52.16 207.947 50.56C209.451 48.992 210.763 47.216 211.883 45.232C213.003 43.248 214.011 41.232 214.907 39.184C215.419 37.968 215.867 36.784 216.251 35.632C216.667 34.48 217.035 33.44 217.355 32.512C217.035 32.96 216.619 33.504 216.107 34.144C215.595 34.784 215.083 35.408 214.571 36.016C214.059 36.592 213.611 37.056 213.227 37.408C212.427 38.176 211.563 38.832 210.635 39.376C209.739 39.888 208.811 40.144 207.851 40.144C207.531 40.144 207.259 40.08 207.035 39.952C206.811 39.824 206.699 39.584 206.699 39.232C206.699 38.784 206.811 38.256 207.035 37.648C207.291 37.04 207.563 36.432 207.851 35.824C208.139 35.216 208.379 34.72 208.571 34.336C208.955 33.6 209.323 32.864 209.675 32.128C210.027 31.392 210.331 30.768 210.587 30.256C210.843 29.776 210.971 29.456 210.971 29.296C210.971 29.04 210.779 29.04 210.395 29.296C210.043 29.552 209.707 29.808 209.387 30.064C208.683 30.736 207.947 31.536 207.179 32.464C206.411 33.36 205.819 34.08 205.403 34.624C205.307 34.752 205.227 34.816 205.163 34.816C205.099 34.816 205.067 34.736 205.067 34.576C205.067 34.32 205.147 34.08 205.307 33.856C205.755 33.216 206.283 32.512 206.891 31.744C207.499 30.976 208.123 30.24 208.763 29.536C209.371 28.896 209.995 28.272 210.635 27.664C211.275 27.056 212.091 26.752 213.083 26.752C213.755 26.752 214.091 27.008 214.091 27.52C214.091 27.968 213.899 28.48 213.515 29.056C213.291 29.408 212.939 30 212.459 30.832C211.979 31.664 211.483 32.576 210.971 33.568C210.491 34.528 210.075 35.424 209.723 36.256C209.371 37.088 209.195 37.696 209.195 38.08C209.195 38.528 209.419 38.752 209.867 38.752C210.219 38.752 210.651 38.576 211.163 38.224C211.675 37.84 212.203 37.392 212.747 36.88C213.675 35.984 214.523 34.992 215.291 33.904C216.091 32.816 216.779 31.776 217.355 30.784C217.451 30.624 217.611 30.336 217.835 29.92C218.091 29.504 218.347 29.104 218.603 28.72C218.891 28.336 219.115 28.112 219.275 28.048C219.435 27.984 219.755 27.808 220.235 27.52C220.715 27.232 221.195 27.04 221.675 26.944C222.123 26.848 222.459 26.8 222.683 26.8C223.035 26.8 223.211 26.896 223.211 27.088C223.211 27.344 223.067 27.472 222.779 27.472C222.427 27.472 222.107 27.568 221.819 27.76C221.531 27.92 221.307 28.128 221.147 28.384C220.859 28.8 220.443 29.552 219.899 30.64C219.387 31.728 218.811 32.992 218.171 34.432C217.563 35.84 216.955 37.28 216.347 38.752C215.739 40.192 215.179 41.52 214.667 42.736C213.899 44.56 213.019 46.336 212.027 48.064C211.035 49.824 209.867 51.392 208.523 52.768C207.211 54.176 205.643 55.28 203.819 56.08C202.731 56.56 201.531 56.8 200.219 56.8Z" fill="#000"/>
</g>
<defs>
<clipPath id="clip0_3_7">
<rect width="224" height="57" fill="white"/>
</clipPath>
</defs>
</svg>
