<svg width="55" height="55" viewBox="0 0 55 55" fill="none" xmlns="http://www.w3.org/2000/svg">
<g clip-path="url(#clip0_3_19)">
<circle cx="27.5" cy="27.5" r="27.5" fill="#CAF0F8"/>
<path d="M9.472 43.496C8.14933 43.496 6.89067 43.112 5.696 42.344C4.50133 41.6187 3.60533 40.488 3.008 38.952C2.79467 38.3973 2.64533 37.8 2.56 37.16C2.47467 36.52 2.432 35.9227 2.432 35.368V34.792C2.432 34.4507 2.45333 34.1093 2.496 33.768C2.58133 33.4267 2.77333 33.256 3.072 33.256C3.15733 33.256 3.2 33.2987 3.2 33.384C3.2 33.64 3.17867 33.9173 3.136 34.216C3.136 34.472 3.136 34.728 3.136 34.984C3.136 36.9893 3.62667 38.504 4.608 39.528C5.632 40.552 6.89067 41.064 8.384 41.064C9.87733 41.064 11.328 40.6373 12.736 39.784C14.144 38.9307 15.4453 37.8427 16.64 36.52C17.8347 35.1973 18.9653 33.5547 20.032 31.592C21.0987 29.6293 22.1013 27.56 23.04 25.384C23.9787 23.1653 24.8533 20.9893 25.664 18.856C26.5173 16.7227 27.3067 14.824 28.032 13.16C28.4587 12.1787 29.248 11.3467 30.4 10.664C31.5947 9.98133 32.7253 9.49067 33.792 9.192C33.4933 9.14933 33.1947 9.128 32.896 9.128C32.64 9.08533 32.384 9.04267 32.128 9L23.104 8.104C22.4213 8.01867 21.5253 7.95466 20.416 7.912C19.3067 7.86933 18.1333 7.848 16.896 7.848C15.232 7.848 13.5253 7.95467 11.776 8.168C10.0267 8.33867 8.448 8.65867 7.04 9.128C5.632 9.59733 4.608 10.3013 3.968 11.24C3.62667 11.752 3.456 12.3493 3.456 13.032C3.456 13.7147 3.648 14.3547 4.032 14.952C4.416 15.5493 4.90667 16.0187 5.504 16.36C5.58933 16.4453 5.632 16.5093 5.632 16.552C5.632 16.68 5.52533 16.7867 5.312 16.872C5.14133 16.9573 4.94933 16.9573 4.736 16.872C4.352 16.6587 3.904 16.296 3.392 15.784C2.88 15.272 2.41067 14.7387 1.984 14.184C1.6 13.5867 1.32267 13.096 1.152 12.712C0.896 11.9867 0.768 11.3467 0.768 10.792C0.768 9.768 1.10933 8.936 1.792 8.296C2.51733 7.61333 3.43467 7.10133 4.544 6.76C5.696 6.376 6.912 6.12 8.192 5.992C9.51467 5.82133 10.7733 5.736 11.968 5.736C12.4373 5.736 12.8853 5.736 13.312 5.736C13.7387 5.736 14.144 5.75733 14.528 5.8C15.8933 5.88533 17.3227 5.97066 18.816 6.056C20.3093 6.14133 21.824 6.248 23.36 6.376L33.536 7.208C34.2187 7.25067 35.2427 7.336 36.608 7.464C38.016 7.54933 39.4453 7.592 40.896 7.592C42.4747 7.592 43.9253 7.50667 45.248 7.336C46.5707 7.12267 47.4453 6.76 47.872 6.248C47.9573 6.07733 48.0853 6.03466 48.256 6.12C48.4267 6.20533 48.4693 6.312 48.384 6.44C48.256 6.952 48.0853 7.336 47.872 7.592C47.6587 8.01867 47.36 8.488 46.976 9C46.6347 9.512 46.1013 9.85333 45.376 10.024C45.2053 10.0667 44.9707 10.1093 44.672 10.152C44.3733 10.152 44.0533 10.152 43.712 10.152C42.7307 10.152 41.536 10.088 40.128 9.96C38.7627 9.78933 37.4187 9.61867 36.096 9.448C34.816 9.66133 33.7067 10.2587 32.768 11.24C31.8293 12.2213 31.0187 13.352 30.336 14.632C29.6533 15.8693 29.056 17.0427 28.544 18.152C27.6053 20.072 26.816 21.8427 26.176 23.464C25.5787 25.0427 24.832 26.792 23.936 28.712C23.04 30.6747 22.1013 32.616 21.12 34.536C20.1387 36.4133 18.944 38.12 17.536 39.656C16.4693 40.808 15.232 41.7253 13.824 42.408C12.416 43.1333 10.9653 43.496 9.472 43.496Z" fill="#000"/>
<path d="M16.512 52.448C16.4693 52.4907 16.4267 52.512 16.384 52.512C16.256 52.512 16.192 52.32 16.192 51.936C16.192 51.68 16.256 51.424 16.384 51.168C16.5547 50.8693 16.8533 50.6987 17.28 50.656C18.4747 50.5707 19.6053 50.1653 20.672 49.44C21.7387 48.7147 22.6773 47.8613 23.488 46.88C24.2987 45.856 24.8747 44.896 25.216 44L31.104 29.28C31.9147 27.2747 32.832 25.3333 33.856 23.456C34.9227 21.5787 36.2667 20.0427 37.888 18.848C39.552 17.6533 41.6427 17.056 44.16 17.056C45.1413 17.056 46.1227 17.184 47.104 17.44C48.128 17.6533 48.9813 18.016 49.664 18.528C50.3467 19.04 50.688 19.7653 50.688 20.704C50.688 20.832 50.688 20.96 50.688 21.088C50.688 21.216 50.6667 21.344 50.624 21.472C50.496 22.1547 50.112 22.8373 49.472 23.52C48.8747 24.2027 48.4053 25.056 48.064 26.08C48.0213 26.3787 47.8293 26.528 47.488 26.528C47.1893 26.528 47.1253 26.336 47.296 25.952C47.6373 25.44 47.8933 24.8427 48.064 24.16C48.2773 23.4347 48.384 22.7093 48.384 21.984C48.384 20.8747 48.128 19.8933 47.616 19.04C47.104 18.1867 46.2293 17.76 44.992 17.76C43.8827 17.76 42.752 18.08 41.6 18.72C40.448 19.36 39.4453 20.4693 38.592 22.048L26.752 43.872C25.6427 45.92 24.6187 47.392 23.68 48.288C22.784 49.1413 22.0373 49.6747 21.44 49.888H36.864C38.912 49.888 40.8107 49.824 42.56 49.696C44.3093 49.568 45.376 49.248 45.76 48.736C46.1867 48.1387 46.4 47.4987 46.4 46.816C46.4 45.7493 45.824 44.96 44.672 44.448C44.544 44.3627 44.48 44.2773 44.48 44.192C44.48 44.1067 44.5227 44.0213 44.608 43.936C44.736 43.8507 44.8853 43.8507 45.056 43.936C45.44 44.1067 45.888 44.4907 46.4 45.088C46.9547 45.6427 47.4667 46.2613 47.936 46.944C48.4053 47.584 48.704 48.096 48.832 48.48C48.96 48.864 49.024 49.248 49.024 49.632C49.024 51.3813 47.5093 52.256 44.48 52.256C42.0907 52.256 39.5307 52.1707 36.8 52C34.0693 51.8293 31.36 51.6373 28.672 51.424C26.0267 51.2107 23.5307 51.0613 21.184 50.976C20.288 50.8907 19.392 51.0187 18.496 51.36C17.6427 51.6587 16.9813 52.0213 16.512 52.448Z" fill="#000"/>
</g>
<defs>
<clipPath id="clip0_3_19">
<rect width="55" height="55" fill="white"/>
</clipPath>
</defs>
</svg>
